<svg width="81" height="81" viewBox="0 0 81 81" fill="none" xmlns="http://www.w3.org/2000/svg">
<g clip-path="url(#clip0_764_954)">
<path d="M17.5308 46.7482V64.1621C17.5231 66.0334 17.884 67.888 18.5931 69.6198C19.3021 71.3516 20.3453 72.9269 21.6631 74.2555C22.9809 75.5842 24.5476 76.6403 26.2735 77.3635C27.9995 78.0867 29.851 78.4629 31.7223 78.4705C33.5937 78.4629 35.4452 78.0867 37.1711 77.3635C38.8971 76.6403 40.4637 75.5842 41.7815 74.2555C43.0993 72.9269 44.1425 71.3516 44.8516 69.6198C45.5606 67.888 45.9216 66.0334 45.9139 64.1621V45.0786" stroke="black" stroke-width="3.33919" stroke-linecap="round" stroke-linejoin="round"/>
<path d="M17.5308 46.7484C21.2192 46.7484 24.2092 43.7584 24.2092 40.07C24.2092 36.3816 21.2192 33.3916 17.5308 33.3916C13.8424 33.3916 10.8524 36.3816 10.8524 40.07C10.8524 43.7584 13.8424 46.7484 17.5308 46.7484Z" stroke="black" stroke-width="3.33919" stroke-linecap="round" stroke-linejoin="round"/>
<path d="M17.5308 46.7484C21.2192 46.7484 24.2092 43.7584 24.2092 40.07C24.2092 36.3816 21.2192 33.3916 17.5308 33.3916C13.8424 33.3916 10.8524 36.3816 10.8524 40.07C10.8524 43.7584 13.8424 46.7484 17.5308 46.7484Z" stroke="black" stroke-width="3.33919" stroke-linecap="round" stroke-linejoin="round"/>
<path d="M59.688 5.00863L63.862 3.33903L59.688 1.66943V5.00863Z" stroke="black" stroke-width="3.33919" stroke-linecap="round" stroke-linejoin="round"/>
<path d="M30.0527 3.33936H26.6383C24.2091 3.33936 22.264 5.84375 22.5395 8.64032C24.4178 25.4949 32.2983 45.0793 45.9138 45.0793C59.5294 45.0793 67.4099 25.4949 69.2882 8.64032C69.5637 5.84375 67.6186 3.33936 65.1893 3.33936H61.775" stroke="black" stroke-width="3.33919" stroke-linecap="round" stroke-linejoin="round"/>
<path d="M32.1397 5.00863L27.9657 3.33903L32.1397 1.66943V5.00863Z" stroke="black" stroke-width="3.33919" stroke-linecap="round" stroke-linejoin="round"/>
<path d="M17.5308 41.7401C18.4529 41.7401 19.2004 40.9926 19.2004 40.0705C19.2004 39.1484 18.4529 38.4009 17.5308 38.4009C16.6087 38.4009 15.8612 39.1484 15.8612 40.0705C15.8612 40.9926 16.6087 41.7401 17.5308 41.7401Z" stroke="black" stroke-width="3.33919" stroke-linecap="round" stroke-linejoin="round"/>
</g>
<defs>
<clipPath id="clip0_764_954">
<rect width="80.1406" height="80.1406" fill="white"/>
</clipPath>
</defs>
</svg>
