<svg width="32" height="32" viewBox="0 0 32 32" fill="none" xmlns="http://www.w3.org/2000/svg">
<g clip-path="url(#clip0_16_69)">
<path d="M16 32C7.1648 32 0 24.8352 0 16C0 7.1648 7.1648 0 16 0C24.8352 0 32 7.1648 32 16C32 24.8352 24.8352 32 16 32Z" fill="#3B579D"/>
<path d="M20.16 32V19.6064H24.32L24.944 14.7776H20.16V11.6928C20.16 10.2944 20.5472 9.34081 22.5536 9.34081H25.1104V5.024C24.6688 4.9664 23.1488 4.83521 21.3824 4.83521C17.696 4.83521 15.1712 7.08481 15.1712 11.2192V14.7808H11.0016V19.6096H15.1712V32H20.16Z" fill="white"/>
</g>
<defs>
<clipPath id="clip0_16_69">
<rect width="32" height="32" fill="white"/>
</clipPath>
</defs>
</svg>
