<svg width="32" height="32" viewBox="0 0 32 32" fill="none" xmlns="http://www.w3.org/2000/svg">
<g clip-path="url(#clip0_16_67)">
<path d="M16 6.66667C18.1557 6.66667 20.135 7.4047 21.7151 8.63208L26.5646 4.00545C23.745 1.51994 20.0542 0 16 0C9.85652 0 4.52888 3.46655 1.84773 8.54647L7.24031 12.8037C8.54663 9.22583 11.97 6.66667 16 6.66667Z" fill="#F44336"/>
<path d="M31.8614 18.0025C31.9447 17.347 32 16.6783 32 16.0001C32 14.8563 31.8751 13.7425 31.647 12.6667H16V19.3334H24.6483C23.9486 21.1518 22.703 22.6904 21.1174 23.7594L26.5299 28.0325C29.3992 25.514 31.3626 21.9872 31.8614 18.0025Z" fill="#2196F3"/>
<path d="M6.66667 15.9999C6.66667 14.8753 6.87581 13.8021 7.24032 12.8036L1.84774 8.54639C0.672445 10.7733 0 13.3068 0 15.9999C0 18.6629 0.660075 21.1684 1.81095 23.3772L7.21037 19.1145C6.86458 18.1392 6.66667 17.0938 6.66667 15.9999Z" fill="#FFC107"/>
<path d="M16 25.3333C11.9393 25.3333 8.4939 22.7353 7.21037 19.1145L1.81096 23.3772C4.47901 28.4979 9.82642 31.9999 16 31.9999C20.037 31.9999 23.7183 30.5002 26.53 28.0323L21.1174 23.7592C19.655 24.7451 17.9045 25.3333 16 25.3333Z" fill="#00B060"/>
<path opacity="0.1" d="M16 31.6667C11.2911 31.6667 7.05697 29.7238 4.0634 26.6284C6.99382 29.9171 11.2486 32 16 32C20.7074 32 24.927 29.9582 27.8508 26.721C24.8661 29.7662 20.6642 31.6667 16 31.6667Z" fill="black"/>
<path opacity="0.1" d="M16 19V19.3333H24.6483L24.7833 19H16Z" fill="black"/>
<path d="M31.9926 16.1961C31.9937 16.1305 32 16.0659 32 16.0001C32 15.9814 31.9971 15.9635 31.997 15.9448C31.9961 16.0288 31.9919 16.1118 31.9926 16.1961Z" fill="#E6E6E6"/>
<path opacity="0.2" d="M16 12.6667V13.0001H31.7141C31.6931 12.8901 31.6702 12.776 31.647 12.6667H16Z" fill="white"/>
<path d="M31.647 12.6667H16V19.3333H24.6483C23.3034 22.8288 19.9696 25.3333 16 25.3333C10.8454 25.3333 6.66667 21.1546 6.66667 16C6.66667 10.8453 10.8454 6.66667 16 6.66667C17.8691 6.66667 19.5919 7.24089 21.0514 8.18758C21.2747 8.33276 21.5052 8.46908 21.7151 8.63208L26.5646 4.00545L26.4552 3.92131C23.6493 1.48942 20.0047 0 16 0C7.16341 0 0 7.16341 0 16C0 24.8365 7.16341 32 16 32C24.1569 32 30.8739 25.8917 31.8614 18.0024C31.9447 17.3469 32 16.6782 32 16C32 14.8562 31.8751 13.7424 31.647 12.6667Z" fill="url(#paint0_linear_16_67)"/>
<path opacity="0.1" d="M21.0514 7.85417C19.5919 6.90747 17.8691 6.33325 16 6.33325C10.8454 6.33325 6.66667 10.5119 6.66667 15.6666C6.66667 15.7228 6.66743 15.7668 6.6684 15.8228C6.75833 10.7459 10.9016 6.66659 16 6.66659C17.8691 6.66659 19.5919 7.2408 21.0514 8.1875C21.2747 8.33268 21.5052 8.46899 21.7151 8.632L26.5646 4.00537L21.7151 8.29867C21.5052 8.13566 21.2747 7.99935 21.0514 7.85417Z" fill="black"/>
<path opacity="0.2" d="M16 0.333333C19.9667 0.333333 23.5772 1.79785 26.3724 4.1888L26.5646 4.00545L26.4179 3.8777C23.6119 1.44581 20.0047 0 16 0C7.16341 0 0 7.16341 0 16C0 16.0562 0.00781253 16.1105 0.00838213 16.1667C0.0987141 7.4078 7.21964 0.333333 16 0.333333Z" fill="white"/>
</g>
<defs>
<linearGradient id="paint0_linear_16_67" x1="0" y1="16" x2="32" y2="16" gradientUnits="userSpaceOnUse">
<stop stop-color="white" stop-opacity="0.2"/>
<stop offset="1" stop-color="white" stop-opacity="0"/>
</linearGradient>
<clipPath id="clip0_16_67">
<rect width="32" height="32" fill="white"/>
</clipPath>
</defs>
</svg>
