<svg width="92" height="92" viewBox="0 0 92 92" fill="none" xmlns="http://www.w3.org/2000/svg">
<path d="M80.6978 32.728L51.8853 9.3155C48.3553 6.44952 43.2339 6.44952 39.7039 9.3155L10.8953 32.7242C9.88399 33.5447 9.30774 34.7582 9.30774 36.0558V80.1064C9.30774 82.4724 11.2349 84.4187 13.601 84.4187H32.9187C35.2847 84.4187 37.2119 82.4724 37.2119 80.1064V52.2251H54.3811V80.1064C54.3811 82.4724 56.3083 84.4187 58.6744 84.4187H77.9921C80.3581 84.4187 82.2853 82.4724 82.2853 80.1064V36.0558C82.2815 34.7582 81.7052 33.5447 80.6978 32.728ZM77.9883 80.1293H58.6705V52.206C58.6705 49.8399 56.7434 47.9356 54.3773 47.9356H37.2081C34.8421 47.9356 32.9149 49.8399 32.9149 52.206V80.1293H13.601V36.0558L42.4134 12.6471C44.3712 11.0519 47.2219 11.0557 49.1796 12.6471L77.9921 36.0558L77.9883 80.1293Z" fill="black"/>
</svg>
