<svg width="51" height="51" viewBox="0 0 51 51" fill="none" xmlns="http://www.w3.org/2000/svg">
<path d="M40.6406 34.1169L31.9547 31.3916H19.2047L10.4948 34.1169C9.71641 34.3603 9.02448 34.8226 8.50166 35.4485C7.97883 36.0745 7.64722 36.8377 7.54641 37.6471L7.17188 40.5955C12.75 43.0738 19.4677 44.1336 25.5797 44.1336C31.6917 44.1336 38.4014 43.0738 43.9875 40.5955L43.6209 37.6471C43.5169 36.8341 43.1803 36.0685 42.6516 35.4423C42.1229 34.8161 41.4246 34.3558 40.6406 34.1169Z" fill="#E0EBEE"/>
<path d="M43.9955 40.5962L43.8281 38.9387C43.2688 37.9787 42.366 37.2667 41.302 36.9465L32.2097 34.2212H18.9656L9.91312 36.9465C8.84787 37.2642 7.94424 37.9768 7.38703 38.9387L7.17188 40.5962C12.75 43.0745 19.4677 44.1343 25.5797 44.1343C31.6917 44.1343 38.4014 43.0824 43.9955 40.5962Z" fill="#CEDDE1"/>
<path d="M22.7031 44.0543C22.2967 43.2574 19.2128 37.3446 19.2049 31.3999L16.4875 32.2446L14.2483 36.7629L17.7864 38.8905L16.1927 43.3132C18.3462 43.6895 20.5202 43.937 22.7031 44.0543Z" fill="#EAF2F3"/>
<path d="M16.4953 32.2446L14.2561 36.7549L17.7942 38.8826L16.2084 43.3053" stroke="#C5D5D8" stroke-width="0.795421" stroke-linejoin="round"/>
<path d="M28.4565 44.0543C28.8629 43.2574 31.9469 37.3446 31.9548 31.3999L34.6722 32.2446L36.9114 36.7629L33.3733 38.8873L34.967 43.31C32.8137 43.6878 30.6396 43.9363 28.4565 44.0543Z" fill="#EAF2F3"/>
<path d="M34.6722 32.2446L36.9114 36.7549L33.3733 38.8826L34.9511 43.3053" stroke="#C5D5D8" stroke-width="0.795421" stroke-linejoin="round"/>
<path d="M19.2126 31.3916C19.2126 37.7666 22.7508 44.1416 22.7508 44.1416H28.4166C28.4166 44.1416 31.9547 37.7666 31.9547 31.3916H19.2126Z" fill="#96C8E2" stroke="#343433" stroke-width="1.34211" stroke-linejoin="round"/>
<path d="M31.9547 31.3916L40.6406 34.1169C41.4191 34.3603 42.111 34.8226 42.6338 35.4485C43.1566 36.0745 43.4883 36.8377 43.5891 37.6471L43.9556 40.5955C38.3775 43.0738 31.6598 44.1336 25.5478 44.1336C19.4358 44.1336 12.75 43.0818 7.17188 40.5955L7.53844 37.6471C7.64198 36.8387 7.97459 36.0768 8.49702 35.4513C9.01945 34.8258 9.70989 34.3628 10.4869 34.1169L19.2047 31.3916" stroke="#343433" stroke-width="1.19268" stroke-linejoin="round"/>
<path d="M25.5796 38.9141C25.9097 38.9141 26.1772 38.6465 26.1772 38.3164C26.1772 37.9863 25.9097 37.7188 25.5796 37.7188C25.2495 37.7188 24.9819 37.9863 24.9819 38.3164C24.9819 38.6465 25.2495 38.9141 25.5796 38.9141Z" fill="#333333"/>
<path d="M25.5796 41.7031C25.9097 41.7031 26.1772 41.4355 26.1772 41.1055C26.1772 40.7754 25.9097 40.5078 25.5796 40.5078C25.2495 40.5078 24.9819 40.7754 24.9819 41.1055C24.9819 41.4355 25.2495 41.7031 25.5796 41.7031Z" fill="#333333"/>
<path d="M36.0586 15.1403C36.4778 15.9325 36.7095 16.8103 36.7359 17.7062C36.7441 18.1565 36.7174 18.6068 36.6562 19.0529C36.9892 17.524 36.7807 15.9269 36.0666 14.5347V14.7737L36.0586 15.1403Z" fill="#333333"/>
<path d="M30.7434 24.8652H20.5593V34.0452H30.7434V24.8652Z" fill="#E6B790"/>
<path d="M20.5593 27.5913L25.3804 32.1574C25.9648 32.7888 26.2917 33.616 26.2968 34.4763C26.3016 34.6705 26.331 34.8633 26.3845 35.05H30.7673V24.8628H20.5593V27.5913Z" fill="#DDAD8A"/>
<path d="M30.7434 24.8652H20.5593V34.0452H30.7434V24.8652Z" stroke="#333333" stroke-width="1.34211" stroke-linejoin="round"/>
<path d="M33.1819 21.9248L32.7436 24.3154C32.5134 25.5553 31.8391 26.6687 30.847 27.4471L28.807 29.0409C27.8983 29.7555 26.7757 30.1441 25.6195 30.1441C24.4634 30.1441 23.3408 29.7555 22.432 29.0409L20.392 27.4471C19.4026 26.671 18.731 25.5601 18.5035 24.3234L18.0652 21.9328C16.5989 21.869 15.8578 20.2912 15.6745 18.7453C15.4514 16.9204 16.2802 15.5578 17.6588 15.5578V13.964C17.6588 9.65293 19.2525 5.58887 25.6275 5.58887C32.0025 5.58887 33.5963 9.64496 33.5963 13.964V15.5578C34.9749 15.5578 35.8195 16.9204 35.5964 18.7453C35.3892 20.2673 34.6163 21.8212 33.2058 21.9328L33.1819 21.9248Z" fill="#EFC8A5"/>
<path d="M33.668 15.4225V13.8288C33.668 9.51768 32.0743 5.45361 25.6993 5.45361C19.3243 5.45361 17.7305 9.51768 17.7305 13.8288V15.4225C16.3519 15.4225 15.5232 16.7852 15.7463 18.61C15.9376 20.156 16.6707 21.7338 18.137 21.7975L18.5832 24.1881C18.8086 25.4279 19.4805 26.542 20.4718 27.3199L20.663 27.4633C16.7982 14.7691 26.9424 14.2192 28.6318 11.5258C29.3569 13.7013 34.3135 15.6138 35.4291 19.5424C35.5201 19.2373 35.5867 18.9256 35.6284 18.61C35.8594 16.7852 35.0626 15.4225 33.668 15.4225Z" fill="#E6B790"/>
<path d="M21.6511 21.8535C23.1915 21.8535 24.4402 20.6048 24.4402 19.0645C24.4402 17.5241 23.1915 16.2754 21.6511 16.2754C20.1108 16.2754 18.8621 17.5241 18.8621 19.0645C18.8621 20.6048 20.1108 21.8535 21.6511 21.8535Z" fill="#DDAD8A"/>
<path d="M19.6909 19.7813C19.6931 20.3932 19.8976 20.9872 20.2726 21.4707C20.8289 21.7941 21.4803 21.914 22.1152 21.8099C22.7502 21.7058 23.3292 21.3842 23.753 20.9C24.1769 20.4159 24.4192 19.7995 24.4384 19.1563C24.4577 18.5132 24.2527 17.8834 23.8586 17.3748C23.438 17.1272 22.9595 16.9954 22.4715 16.9927C21.9835 16.99 21.5035 17.1165 21.0802 17.3593C20.6569 17.6021 20.3054 17.9526 20.0614 18.3752C19.8174 18.7978 19.6896 19.2774 19.6909 19.7654V19.7813Z" fill="#E6B790"/>
<path d="M33.5724 15.5582V13.9644C33.5724 9.65333 31.9787 5.58927 25.6037 5.58927C24.8635 5.58314 24.1244 5.64717 23.3963 5.78052V14.0441C23.3969 14.4748 23.308 14.901 23.1351 15.2955C22.9623 15.6901 22.7093 16.0444 22.3923 16.3359C22.3441 16.3799 22.3089 16.4362 22.2904 16.4987C22.2719 16.5612 22.2708 16.6276 22.2872 16.6907C22.3035 16.7538 22.3368 16.8113 22.3834 16.8569C22.43 16.9025 22.4882 16.9345 22.5516 16.9495C22.9137 17.0399 23.2444 17.227 23.5083 17.4909C23.7722 17.7548 23.9594 18.0855 24.0498 18.4476C24.0606 18.4978 24.0813 18.5453 24.1105 18.5874C24.1397 18.6296 24.177 18.6656 24.2201 18.6933C24.2633 18.7211 24.3115 18.7401 24.3619 18.7492C24.4124 18.7583 24.4642 18.7574 24.5143 18.7465C24.5682 18.7345 24.6189 18.7114 24.6633 18.6787C24.7999 18.5653 24.9567 18.4788 25.1255 18.4237C25.2259 18.3984 25.3323 18.414 25.4212 18.467C25.5101 18.5201 25.5743 18.6063 25.5997 18.7066C25.6076 18.7392 25.6116 18.7727 25.6116 18.8062V20.4558C25.6197 20.6133 25.6697 20.7659 25.7566 20.8976C25.8435 21.0293 25.964 21.1354 26.1057 21.2048C26.5599 21.4598 26.2332 22.3205 25.6116 22.3205C25.3628 22.3262 25.1173 22.2628 24.9024 22.1372C24.3127 21.8423 23.7629 22.448 23.8904 22.6791C24.0179 22.9101 24.1613 22.6791 24.751 22.958C25.0243 23.0918 25.3233 23.1652 25.6276 23.1731V26.1056C25.6293 26.1763 25.6545 26.2445 25.6992 26.2993C25.744 26.3541 25.8057 26.3925 25.8746 26.4084C26.9185 26.6555 27.4683 28.3926 25.6276 28.7991C25.4053 28.843 25.2049 28.962 25.0598 29.1361C24.9147 29.3101 24.8339 29.5287 24.8307 29.7553V30.1139C25.5304 30.2224 26.2448 30.1865 26.9301 30.0083C27.6153 29.8301 28.2568 29.5135 28.8151 29.078L30.8551 27.4842C31.8457 26.7045 32.5197 25.5917 32.7516 24.3525L33.1899 21.9619C34.6243 21.8662 35.3973 20.3044 35.5805 18.7744C35.7957 16.9208 34.951 15.5582 33.5724 15.5582Z" fill="#E6B790"/>
<path d="M33.6281 15.4225C33.6281 15.3428 33.3014 15.3348 32.8313 15.3428C33.158 20.7057 32.385 21.9329 32.385 24.3315L33.2297 21.7895C34.6561 21.6939 35.437 20.132 35.6203 18.602C35.8594 16.7851 34.9988 15.4225 33.6281 15.4225Z" fill="#DDAD8A"/>
<path d="M35.2218 16.3313C35.0589 16.0537 34.8259 15.8237 34.5463 15.6643C34.2666 15.5049 33.95 15.4217 33.6281 15.4229C33.6361 15.3808 33.6361 15.3375 33.6281 15.2954V13.8292C33.655 12.5242 33.4665 11.2238 33.0703 9.98024C32.2734 7.58962 30.4406 5.81259 26.8068 5.50181C26.4663 5.46993 26.0838 5.45399 25.6593 5.45399C25.2736 5.44522 24.8876 5.46119 24.5039 5.50181H24.3206C24.0308 5.51685 23.7429 5.55685 23.46 5.62134V13.9088C23.4606 14.355 23.3627 14.7959 23.1731 15.1998C25.3247 13.5263 27.8428 12.7454 28.6317 11.5262C29.3568 13.7017 34.3134 15.6142 35.429 19.5427C35.4768 19.3887 35.5167 19.2373 35.5486 19.0885C35.5486 18.9292 35.6123 18.7698 35.6283 18.6104C35.7556 17.8266 35.6123 17.0228 35.2218 16.3313Z" fill="#DDAD8A"/>
<path d="M29.572 21.8535C31.1124 21.8535 32.3611 20.6048 32.3611 19.0645C32.3611 17.5241 31.1124 16.2754 29.572 16.2754C28.0317 16.2754 26.783 17.5241 26.783 19.0645C26.783 20.6048 28.0317 21.8535 29.572 21.8535Z" fill="#DDAD8A"/>
<path d="M27.6038 19.7813C27.6059 20.3932 27.8105 20.9872 28.1855 21.4707C28.7417 21.7941 29.3931 21.914 30.0281 21.8099C30.663 21.7058 31.242 21.3842 31.6659 20.9C32.0897 20.4159 32.332 19.7995 32.3513 19.1563C32.3705 18.5132 32.1655 17.8834 31.7714 17.3748C31.3509 17.1272 30.8723 16.9954 30.3843 16.9927C29.8964 16.99 29.4164 17.1165 28.9931 17.3593C28.5698 17.6021 28.2183 17.9526 27.9743 18.3752C27.7303 18.7978 27.6024 19.2774 27.6038 19.7654V19.7813Z" fill="#E6B790"/>
<path d="M23.978 23.1094C24.7749 23.1094 24.7749 23.5158 25.5718 23.5158C26.3687 23.5158 26.3687 23.1094 27.1655 23.1094" stroke="#DDAD8A" stroke-width="0.581579" stroke-miterlimit="10" stroke-linecap="round"/>
<path d="M25.5718 23.4077V23.9974" stroke="#DDAD8A" stroke-width="0.581579" stroke-miterlimit="10" stroke-linecap="round"/>
<path d="M33.1819 21.9248L32.7436 24.3154C32.5134 25.5553 31.8391 26.6687 30.847 27.4471L28.807 29.0409C27.8983 29.7555 26.7757 30.1441 25.6195 30.1441C24.4634 30.1441 23.3408 29.7555 22.432 29.0409L20.392 27.4471C19.4026 26.6711 18.731 25.5601 18.5035 24.3234L18.0652 21.9328C16.5989 21.869 15.8578 20.2912 15.6745 18.7453C15.4514 16.9204 16.2802 15.5578 17.6588 15.5578V13.964C17.6588 9.65293 19.2525 5.58887 25.6275 5.58887C32.0025 5.58887 33.5963 9.64496 33.5963 13.964V15.5578C34.9749 15.5578 35.8195 16.9204 35.5964 18.7453C35.3892 20.2673 34.6163 21.8212 33.2058 21.9328L33.1819 21.9248Z" stroke="#333333" stroke-width="1.34211" stroke-linejoin="round"/>
<path d="M23.4919 19.1249C23.0297 18.8619 21.8424 17.3319 20.3044 18.8619C20.1072 18.7703 19.9268 18.6464 19.7705 18.4953C20.5106 18.1216 21.3647 18.0419 22.1611 18.2722" fill="#333333"/>
<path d="M23.4919 19.1249C23.0297 18.8619 21.8424 17.3319 20.3044 18.8619C20.1072 18.7703 19.9268 18.6464 19.7705 18.4953C20.5106 18.1216 21.3647 18.0419 22.1611 18.2722" stroke="#333333" stroke-width="0.450947" stroke-miterlimit="10" stroke-linecap="round"/>
<path d="M27.835 19.1249C28.2971 18.8619 29.4845 17.3319 31.0225 18.8619C31.2196 18.7703 31.4001 18.6464 31.5564 18.4953C30.8163 18.1216 29.9622 18.0419 29.1657 18.2722" fill="#333333"/>
<path d="M27.835 19.1249C28.2971 18.8619 29.4845 17.3319 31.0225 18.8619C31.2196 18.7703 31.4001 18.6464 31.5564 18.4953C30.8163 18.1216 29.9622 18.0419 29.1657 18.2722" stroke="#333333" stroke-width="0.450947" stroke-miterlimit="10" stroke-linecap="round"/>
<path d="M21.6511 21.8535C23.1915 21.8535 24.4402 20.6048 24.4402 19.0645C24.4402 17.5241 23.1915 16.2754 21.6511 16.2754C20.1108 16.2754 18.8621 17.5241 18.8621 19.0645C18.8621 20.6048 20.1108 21.8535 21.6511 21.8535Z" stroke="#333333" stroke-width="1.04416" stroke-linejoin="round"/>
<path d="M29.572 21.8535C31.1124 21.8535 32.3611 20.6048 32.3611 19.0645C32.3611 17.5241 31.1124 16.2754 29.572 16.2754C28.0317 16.2754 26.783 17.5241 26.783 19.0645C26.783 20.6048 28.0317 21.8535 29.572 21.8535Z" stroke="#333333" stroke-width="1.04416" stroke-linejoin="round"/>
<path d="M26.8069 18.6738C26.4164 18.5136 26.0013 18.422 25.5797 18.4028C25.1812 18.4225 24.7884 18.5059 24.4163 18.6499" stroke="#333333" stroke-width="0.894737" stroke-linejoin="round"/>
<path d="M22.2726 20.7772C22.5455 20.7772 22.7667 20.556 22.7667 20.2831C22.7667 20.0103 22.5455 19.7891 22.2726 19.7891C21.9998 19.7891 21.7786 20.0103 21.7786 20.2831C21.7786 20.556 21.9998 20.7772 22.2726 20.7772Z" fill="#EFC8A5"/>
<path d="M30.5683 20.7772C30.8411 20.7772 31.0623 20.556 31.0623 20.2831C31.0623 20.0103 30.8411 19.7891 30.5683 19.7891C30.2954 19.7891 30.0742 20.0103 30.0742 20.2831C30.0742 20.556 30.2954 20.7772 30.5683 20.7772Z" fill="#EFC8A5"/>
<path d="M37.1503 17.7415C37.03 16.5261 36.6466 15.3514 36.0267 14.299C35.8037 11.6838 34.6231 9.24287 32.7114 7.44438C30.7997 5.64589 28.2913 4.61637 25.6673 4.55322C20.2645 4.55322 15.8817 7.97182 15.6108 13.9484C14.1525 17.2554 16.2323 22.0446 16.9256 27.4953H19.3162C15.3319 14.2592 26.6873 12.5299 28.9345 9.964C29.07 13.542 36.4969 13.8368 36.0506 21.1203C36.7256 20.1188 37.1065 18.9484 37.1503 17.7415Z" fill="#444444"/>
<path d="M36.3055 13.8449C36.0824 11.3475 34.9679 9.0139 33.1658 7.27066C31.177 5.21611 28.4545 4.03426 25.5955 3.98434C24.169 3.94785 22.7503 4.20648 21.4284 4.74402C20.1065 5.28156 18.9099 6.0864 17.9136 7.10809C16.0837 9.00554 15.0635 11.5403 15.0688 14.1764C14.9398 14.7565 14.852 15.345 14.8058 15.9375C14.6027 17.8149 14.7899 19.714 15.3557 21.5156C15.4194 21.7706 15.4752 22.0176 15.5549 22.2726C16.1135 23.983 16.4457 25.7592 16.543 27.5559C16.5419 27.6208 16.5535 27.6853 16.5773 27.7457C16.6012 27.8061 16.6367 27.8612 16.6818 27.9078C16.727 27.9545 16.7809 27.9918 16.8405 28.0175C16.9001 28.0433 16.9642 28.057 17.0291 28.0579L20.9179 28.1456C14.0329 16.9893 25.205 13.5229 28.8069 10.5108C29.2771 12.1045 30.5919 12.8615 32.2335 14.2003L32.4088 18.8222C32.4129 18.9341 32.4614 19.0397 32.5434 19.1159C32.6254 19.1921 32.7344 19.2327 32.8463 19.2286C32.9017 19.2266 32.9562 19.2137 33.0067 19.1907C33.0571 19.1676 33.1025 19.1348 33.1403 19.0942C33.1781 19.0535 33.2074 19.0058 33.2267 18.9538C33.246 18.9018 33.2548 18.8465 33.2527 18.7911C33.2527 18.5201 33.165 16.4005 34.0496 15.8984C35.0217 16.3048 35.7071 17.9145 35.4361 19.4126C35.1971 20.7195 34.3922 21.867 33.1571 21.9547L32.7188 24.3453C32.3294 25.8733 31.4191 27.2176 30.1449 28.1464L34.456 28.0587C34.5219 28.0577 34.587 28.0437 34.6475 28.0175C34.708 27.9913 34.7628 27.9534 34.8086 27.9061C34.8545 27.8587 34.8906 27.8028 34.9149 27.7415C34.9391 27.6802 34.9511 27.6147 34.95 27.5487C35.0067 26.706 35.1158 25.8677 35.2767 25.0386C35.5557 24.3373 35.8585 23.644 36.2091 22.9667C38.1383 19.0405 37.9949 16.1239 36.3055 13.8449ZM29.1336 10.1075C29.5171 9.61788 29.8383 9.08254 30.0899 8.51378C29.1416 10.1075 26.3366 11.263 25.1094 11.781C23.0963 12.5708 21.2758 13.7827 19.7704 15.335C18.2644 17.0815 17.2958 19.2263 16.9813 21.5108C17.1725 13.3349 22.4479 12.4982 26.5438 8.203C23.938 9.90034 16.1844 12.3627 16.288 19.4071C15.6186 14.9366 15.7382 12.6655 21.2207 7.95597C18.9018 9.10347 17.3718 10.1474 16.3916 11.3905C16.9135 10.0789 17.7065 8.89227 18.7185 7.90816C20.6263 6.18613 23.0898 5.20754 25.6593 5.15097C28.2476 5.11562 30.7461 6.099 32.616 7.88903C34.083 9.25958 35.1046 11.0391 35.5485 12.997C34.4062 11.9045 33.0856 11.0151 31.6438 10.3673C31.936 10.6602 32.2533 10.9268 32.5921 11.1642C34.0583 12.2559 36.6482 15.0131 36.7279 17.6906C36.7297 18.4432 36.636 19.1929 36.449 19.9218C36.3374 13.8528 30.4804 13.7652 29.1336 10.1075Z" fill="#333333"/>
<path d="M20.6231 29.2642C20.6231 29.2642 21.7069 31.7504 25.5797 34.2207L22.7508 37.7588C20.6231 35.6312 19.2126 32.8023 19.2126 31.3838L20.6231 29.2642Z" fill="#96C8E2" stroke="#343433" stroke-width="1.34211" stroke-linejoin="round"/>
<path d="M30.5362 29.2642C30.5362 29.2642 29.4843 31.7504 25.5796 34.2207L28.4085 37.7588C30.5362 35.6312 31.9466 32.8023 31.9466 31.3838L30.5362 29.2642Z" fill="#96C8E2" stroke="#343433" stroke-width="1.34211" stroke-linejoin="round"/>
<path d="M36.1223 41.2256V32.46C36.1591 31.6516 35.8733 30.8618 35.3279 30.264C34.7825 29.6663 34.022 29.3097 33.2137 29.2725H31.3411" stroke="#333333" stroke-width="1.34211" stroke-linejoin="round"/>
<path d="M14.4236 36.8348V32.46C14.3868 31.6516 14.6725 30.8618 15.218 30.264C15.7634 29.6663 16.5238 29.3097 17.3322 29.2725H20.0017" stroke="#333333" stroke-width="1.34211" stroke-linejoin="round"/>
<path d="M38.9114 44.0146C38.9114 44.5663 38.7478 45.1055 38.4413 45.5642C38.1349 46.0228 37.6993 46.3803 37.1896 46.5914C36.68 46.8025 36.1192 46.8577 35.5782 46.7501C35.0372 46.6425 34.5402 46.3769 34.1502 45.9868C33.7601 45.5968 33.4945 45.0998 33.3868 44.5588C33.2792 44.0177 33.3345 43.457 33.5456 42.9473C33.7567 42.4377 34.1141 42.0021 34.5728 41.6956C35.0315 41.3892 35.5707 41.2256 36.1223 41.2256C36.862 41.2256 37.5714 41.5194 38.0945 42.0425C38.6175 42.5655 38.9114 43.2749 38.9114 44.0146Z" fill="#E0EBEE"/>
<path d="M36.1223 44.8115C36.5624 44.8115 36.9192 44.4548 36.9192 44.0146C36.9192 43.5745 36.5624 43.2178 36.1223 43.2178C35.6822 43.2178 35.3254 43.5745 35.3254 44.0146C35.3254 44.4548 35.6822 44.8115 36.1223 44.8115Z" fill="#333333"/>
<path d="M38.9114 44.0146C38.9114 44.5663 38.7478 45.1055 38.4413 45.5642C38.1349 46.0228 37.6993 46.3803 37.1896 46.5914C36.68 46.8025 36.1192 46.8577 35.5782 46.7501C35.0372 46.6425 34.5402 46.3769 34.1502 45.9868C33.7601 45.5968 33.4945 45.0998 33.3868 44.5588C33.2792 44.0177 33.3345 43.457 33.5456 42.9473C33.7567 42.4377 34.1141 42.0021 34.5728 41.6956C35.0315 41.3892 35.5707 41.2256 36.1223 41.2256C36.862 41.2256 37.5714 41.5194 38.0945 42.0425C38.6175 42.5655 38.9114 43.2749 38.9114 44.0146Z" stroke="#333333" stroke-width="1.34211" stroke-linejoin="round"/>
<path d="M12.8296 46.8037C13.2697 46.8037 13.6265 46.4469 13.6265 46.0068C13.6265 45.5667 13.2697 45.21 12.8296 45.21C12.3895 45.21 12.0327 45.5667 12.0327 46.0068C12.0327 46.4469 12.3895 46.8037 12.8296 46.8037Z" fill="#333333"/>
<path d="M16.0171 46.8037C16.4572 46.8037 16.814 46.4469 16.814 46.0068C16.814 45.5667 16.4572 45.21 16.0171 45.21C15.577 45.21 15.2202 45.5667 15.2202 46.0068C15.2202 46.4469 15.577 46.8037 16.0171 46.8037Z" fill="#333333"/>
<path d="M12.8296 46.0068C11.2358 46.0068 10.439 45.3454 10.439 44.4131C10.439 42.0225 14.4233 36.4443 14.4233 36.4443C14.4233 36.4443 18.4077 42.0225 18.4077 44.4131C18.4077 45.3454 17.6108 46.0068 16.0171 46.0068" stroke="#333333" stroke-width="1.34211" stroke-linejoin="round"/>
<path d="M26.3449 24.2199C26.117 24.3245 25.8703 24.3814 25.6197 24.3873C25.4284 24.3873 25.4125 24.3873 24.9902 24.2199C24.2411 23.957 24.1933 24.8734 22.8147 25.3196L23.6753 26.0049C23.8431 26.1653 24.0424 26.2891 24.2604 26.3687C24.4785 26.4482 24.7107 26.4817 24.9424 26.4671H26.2492C26.7518 26.4854 27.2413 26.3051 27.6119 25.9651L28.4088 25.3196C27.0939 24.8973 27.0939 23.957 26.3449 24.2199Z" fill="#925140"/>
<path d="M22.958 25.1206L22.7349 25.5748" stroke="#DDAD8A" stroke-width="0.581579" stroke-miterlimit="10" stroke-linecap="round"/>
<path d="M28.2493 25.1206L28.4804 25.5748" stroke="#DDAD8A" stroke-width="0.581579" stroke-miterlimit="10" stroke-linecap="round"/>
<path d="M24.0178 22.73C24.8147 22.73 24.8147 23.1284 25.6116 23.1284C26.4084 23.1284 26.4084 22.73 27.2053 22.73" stroke="#674848" stroke-width="0.671053" stroke-miterlimit="10" stroke-linecap="round"/>
<path d="M22.958 25.3355C23.6513 25.3355 23.5318 25.0885 24.5518 25.0487C24.9033 25.0461 25.2538 25.0863 25.5957 25.1682C25.9653 25.0748 26.3463 25.0345 26.7272 25.0487C27.7871 25.1044 27.6038 25.4073 28.2413 25.3435" stroke="#753F3F" stroke-width="0.447368" stroke-miterlimit="10" stroke-linecap="round"/>
<path d="M22.0337 19.3196C22.3901 19.3196 22.6791 19.1162 22.6791 18.8654C22.6791 18.6145 22.3901 18.4111 22.0337 18.4111C21.6772 18.4111 21.3882 18.6145 21.3882 18.8654C21.3882 19.1162 21.6772 19.3196 22.0337 19.3196Z" fill="#333333"/>
<path d="M29.1816 19.3196C29.5381 19.3196 29.8271 19.1162 29.8271 18.8654C29.8271 18.6145 29.5381 18.4111 29.1816 18.4111C28.8251 18.4111 28.5361 18.6145 28.5361 18.8654C28.5361 19.1162 28.8251 19.3196 29.1816 19.3196Z" fill="#333333"/>
</svg>
