<svg width="82" height="79" viewBox="0 0 82 79" fill="none" xmlns="http://www.w3.org/2000/svg">
<path d="M48.2856 40.6646L41.6749 34.4545C43.3776 31.9504 42.6765 29.7468 42.4762 25.8405C42.3159 22.7154 44.2123 19.2631 45.1806 17.9276L60.5807 2.61802C61.4882 1.71584 62.9477 1.69589 63.8795 2.57292C64.8363 3.47341 64.8791 4.97998 63.9749 5.93331L52.604 17.9231C51.6501 18.9289 51.671 20.5117 52.6513 21.4919C53.664 22.5047 55.311 22.4885 56.3037 21.4561L67.6024 9.70542C68.6555 8.61028 70.4024 8.59315 71.4767 9.66744C72.509 10.6997 72.5394 12.3638 71.5455 13.4331L60.6205 25.187C59.6261 26.2568 59.7143 27.9373 60.8153 28.8971C61.87 29.8166 63.4646 29.7305 64.4142 28.7029L75.7102 16.4785C76.6078 15.5071 78.1215 15.4433 79.0976 16.3358C80.0644 17.2197 80.1469 18.7133 79.2828 19.6978C75.4585 24.0552 69.2993 31.1137 66.5153 34.4545C62.5088 39.2623 58.7026 39.8633 55.0967 39.4627C52.212 39.1421 49.354 40.1304 48.2856 40.6646Z" stroke="black" stroke-width="2.8"/>
<path d="M34.8638 54.9879L29.8556 47.5759L11.2253 64.2029C9.08844 65.6052 5.59609 69.5917 8.72118 74.3194C11.8463 79.0471 16.7676 77.1574 18.8377 75.6216L34.8638 54.9879Z" stroke="black" stroke-width="2.8"/>
<path d="M19.4386 37.5596C28.253 37.9602 33.3947 43.2021 34.8638 45.7729C41.6081 55.2884 55.1769 74.2393 55.4974 73.9188C55.898 73.5181 60.205 80.1289 65.714 75.6216C70.1212 72.0157 67.5503 67.4416 65.714 65.6052C58.8695 58.9945 44.0988 44.7513 39.7718 40.6646C35.4447 36.578 34.3629 29.0791 34.3629 25.8405C36.1258 15.3434 26.9509 8.17836 22.143 5.90799C18.003 4.272 8.74121 1.9816 4.81482 5.90799C0.888422 9.83439 1.91009 18.2281 2.91172 21.9341C4.74804 26.9756 10.6243 37.1589 19.4386 37.5596Z" stroke="black" stroke-width="2.8"/>
</svg>
